<svg width="18" height="21" viewBox="0 0 18 21" fill="none" xmlns="http://www.w3.org/2000/svg">
    <path d="M12.75 4.5C12.75 5.49456 12.3549 6.44839 11.6516 7.15165C10.9484 7.85491 9.99454 8.25 8.99998 8.25C8.00541 8.25 7.05159 7.85491 6.34833 7.15165C5.64506 6.44839 5.24998 5.49456 5.24998 4.5C5.24998 3.50544 5.64506 2.55161 6.34833 1.84835C7.05159 1.14509 8.00541 0.75 8.99998 0.75C9.99454 0.75 10.9484 1.14509 11.6516 1.84835C12.3549 2.55161 12.75 3.50544 12.75 4.5ZM1.50098 18.618C1.53311 16.6504 2.33731 14.7742 3.74015 13.394C5.14299 12.0139 7.03206 11.2405 8.99998 11.2405C10.9679 11.2405 12.857 12.0139 14.2598 13.394C15.6626 14.7742 16.4668 16.6504 16.499 18.618C14.1464 19.6968 11.5881 20.2535 8.99998 20.25C6.32398 20.25 3.78398 19.666 1.50098 18.618Z" fill="#696969" stroke="#696969" stroke-width="1.5" stroke-linecap="round" stroke-linejoin="round"/>
</svg>
